<svg xmlns="http://www.w3.org/2000/svg" viewBox="0 0 96 96" width="96" height="96">
  <defs>
    <radialGradient id="oca-bg" cx="0.5" cy="0.42" r="0.7">
      <stop offset="0%" stop-color="#FFFCF5"/><stop offset="60%" stop-color="#F0F5E8"/><stop offset="100%" stop-color="#A8C088" stop-opacity="0.45"/>
    </radialGradient>
    <linearGradient id="oca-apron" x1="0" y1="0" x2="0" y2="1">
      <stop offset="0%" stop-color="#FFF8E8"/><stop offset="60%" stop-color="#F5E5C8"/><stop offset="100%" stop-color="#C8A878"/>
    </linearGradient>
    <linearGradient id="oca-band" x1="0" y1="0" x2="0" y2="1">
      <stop offset="0%" stop-color="#88A868"/><stop offset="100%" stop-color="#587838"/>
    </linearGradient>
  </defs>
  <ellipse cx="48" cy="90" rx="24" ry="2.4" fill="#587838" opacity="0.16"/>
  <circle cx="48" cy="48" r="40" fill="url(#oca-bg)"/>
  <g>
    <animateTransform attributeName="transform" type="translate" values="0 0; 0 -1.5; 0 0" dur="5.5s" repeatCount="indefinite" calcMode="spline" keyTimes="0;0.5;1" keySplines="0.42 0 0.58 1;0.42 0 0.58 1"/>
    <path d="M 36 22 Q 48 18 60 22 L 62 28 Q 48 26 34 28 Z" fill="url(#oca-apron)" stroke="#A88858" stroke-width="0.9" stroke-linejoin="round"/>
    <path d="M 18 28 Q 36 22 36 28 L 34 32 Z" fill="url(#oca-band)" opacity="0.85"/>
    <path d="M 78 28 Q 60 22 60 28 L 62 32 Z" fill="url(#oca-band)" opacity="0.85"/>
    <path d="M 28 32 Q 30 60 34 72 Q 48 76 62 72 Q 66 60 68 32 Q 48 28 28 32 Z" fill="url(#oca-apron)" stroke="#A88858" stroke-width="1.1" stroke-linejoin="round"/>
    <rect x="30" y="48" width="36" height="5" fill="url(#oca-band)"/>
    <path d="M 42 56 L 42 68 M 48 56 L 48 68 M 54 56 L 54 68" stroke="#A88858" stroke-width="0.6" opacity="0.5"/>
    <rect x="40" y="58" width="16" height="11" rx="1.5" fill="#FFF8E8" stroke="#A88858" stroke-width="0.7" opacity="0.85"/>
    <path d="M 43 62 L 53 62 M 43 65 L 51 65" stroke="#88A868" stroke-width="0.7" opacity="0.7"/>
    <ellipse cx="40" cy="40" rx="6" ry="3" fill="#FFFFFF" opacity="0.5"/>
  </g>
  <g fill="#A8C088">
    <path d="M 22 70 L 23 72.5 L 25.5 73.5 L 23 74.5 L 22 77 L 21 74.5 L 18.5 73.5 L 21 72.5 Z" opacity="0.85">
      <animate attributeName="opacity" values="0.9;0.45;0.9" dur="3.6s" repeatCount="indefinite"/>
    </path>
    <path d="M 74 68 L 75 70.5 L 77.5 71.5 L 75 72.5 L 74 75 L 73 72.5 L 70.5 71.5 L 73 70.5 Z" opacity="0.8">
      <animate attributeName="opacity" values="0.85;0.4;0.85" dur="4.2s" begin="0.5s" repeatCount="indefinite"/>
    </path>
  </g>
</svg>
