<svg xmlns="http://www.w3.org/2000/svg" viewBox="0 0 96 96" width="96" height="96">
  <defs>
    <radialGradient id="og-bg" cx="0.5" cy="0.42" r="0.65">
      <stop offset="0%" stop-color="#FFFCF0"/><stop offset="60%" stop-color="#F5E8D0"/><stop offset="100%" stop-color="#C8A878" stop-opacity="0.5"/>
    </radialGradient>
    <linearGradient id="og-frame" x1="0" y1="0" x2="0" y2="1">
      <stop offset="0%" stop-color="#8A6840"/><stop offset="55%" stop-color="#5A3818"/><stop offset="100%" stop-color="#3A2008"/>
    </linearGradient>
    <radialGradient id="og-lens" cx="0.35" cy="0.3" r="0.85">
      <stop offset="0%" stop-color="#FFFFFF" stop-opacity="0.9"/><stop offset="60%" stop-color="#D8E8F2" stop-opacity="0.55"/><stop offset="100%" stop-color="#90B0C8" stop-opacity="0.45"/>
    </radialGradient>
    <linearGradient id="og-book" x1="0" y1="0" x2="0" y2="1">
      <stop offset="0%" stop-color="#E07868"/><stop offset="100%" stop-color="#A04838"/>
    </linearGradient>
  </defs>
  <ellipse cx="48" cy="90" rx="24" ry="2.4" fill="#A86840" opacity="0.18"/>
  <circle cx="48" cy="48" r="40" fill="url(#og-bg)"/>
  <g>
    <animateTransform attributeName="transform" type="translate" values="0 0; 0 -1.5; 0 0" dur="5s" repeatCount="indefinite" calcMode="spline" keyTimes="0;0.5;1" keySplines="0.42 0 0.58 1;0.42 0 0.58 1"/>
    <circle cx="30" cy="44" r="16" fill="url(#og-lens)" stroke="url(#og-frame)" stroke-width="3.6"/>
    <circle cx="66" cy="44" r="16" fill="url(#og-lens)" stroke="url(#og-frame)" stroke-width="3.6"/>
    <path d="M 44 44 Q 48 39 52 44" stroke="url(#og-frame)" stroke-width="3.4" fill="none" stroke-linecap="round"/>
    <path d="M 14 44 Q 11 43 9 45" stroke="url(#og-frame)" stroke-width="3" fill="none" stroke-linecap="round"/>
    <path d="M 82 44 Q 85 43 87 45" stroke="url(#og-frame)" stroke-width="3" fill="none" stroke-linecap="round"/>
    <ellipse cx="24" cy="38" rx="4.5" ry="2.5" fill="#FFFFFF" opacity="0.9"/>
    <ellipse cx="60" cy="38" rx="4.5" ry="2.5" fill="#FFFFFF" opacity="0.9"/>
  </g>
  <g>
    <animateTransform attributeName="transform" type="translate" values="0 0; 0 -1; 0 0" dur="4.5s" repeatCount="indefinite" calcMode="spline" keyTimes="0;0.5;1" keySplines="0.42 0 0.58 1;0.42 0 0.58 1"/>
    <rect x="38" y="68" width="20" height="14" rx="2" fill="url(#og-book)" stroke="#7A2818" stroke-width="0.9"/>
    <rect x="40" y="70" width="16" height="10" fill="#FFF5E0" opacity="0.9"/>
    <line x1="48" y1="68" x2="48" y2="82" stroke="#7A2818" stroke-width="0.8"/>
    <line x1="42" y1="73" x2="46" y2="73" stroke="#A88068" stroke-width="0.5"/>
    <line x1="42" y1="76" x2="46" y2="76" stroke="#A88068" stroke-width="0.5"/>
    <line x1="50" y1="73" x2="54" y2="73" stroke="#A88068" stroke-width="0.5"/>
    <line x1="50" y1="76" x2="54" y2="76" stroke="#A88068" stroke-width="0.5"/>
  </g>
  <g fill="#F5C46E">
    <path d="M 22 18 L 23 21 L 26 22 L 23 23 L 22 26 L 21 23 L 18 22 L 21 21 Z" opacity="0.9">
      <animate attributeName="opacity" values="0.95;0.4;0.95" dur="3.6s" repeatCount="indefinite"/>
    </path>
    <path d="M 74 20 L 75 22.5 L 77.5 23.5 L 75 24.5 L 74 27 L 73 24.5 L 70.5 23.5 L 73 22.5 Z" opacity="0.85">
      <animate attributeName="opacity" values="0.9;0.4;0.9" dur="4.2s" begin="0.7s" repeatCount="indefinite"/>
    </path>
    <circle cx="78" cy="70" r="1.4" opacity="0.75">
      <animate attributeName="opacity" values="0.85;0.3;0.85" dur="3.2s" begin="0.4s" repeatCount="indefinite"/>
    </circle>
  </g>
</svg>
