<svg xmlns="http://www.w3.org/2000/svg" viewBox="0 0 96 96" width="96" height="96">
  <defs>
    <radialGradient id="ofc-bg" cx="0.5" cy="0.42" r="0.7">
      <stop offset="0%" stop-color="#FFFCF5"/><stop offset="55%" stop-color="#FFF0E0"/><stop offset="100%" stop-color="#F0B080" stop-opacity="0.45"/>
    </radialGradient>
    <radialGradient id="ofc-hat" cx="0.5" cy="0.4" r="0.7">
      <stop offset="0%" stop-color="#FFFFFF"/><stop offset="65%" stop-color="#FCF5EC"/><stop offset="100%" stop-color="#E0D0B8"/>
    </radialGradient>
    <linearGradient id="ofc-apron" x1="0" y1="0" x2="0" y2="1">
      <stop offset="0%" stop-color="#FFE5C8"/><stop offset="100%" stop-color="#E0B080"/>
    </linearGradient>
    <linearGradient id="ofc-band" x1="0" y1="0" x2="0" y2="1">
      <stop offset="0%" stop-color="#E07868"/><stop offset="100%" stop-color="#A04838"/>
    </linearGradient>
  </defs>
  <ellipse cx="48" cy="90" rx="24" ry="2.4" fill="#A86840" opacity="0.18"/>
  <circle cx="48" cy="48" r="40" fill="url(#ofc-bg)"/>
  <g>
    <animateTransform attributeName="transform" type="translate" values="0 0; 0 -1.5; 0 0" dur="5.5s" repeatCount="indefinite" calcMode="spline" keyTimes="0;0.5;1" keySplines="0.42 0 0.58 1;0.42 0 0.58 1"/>
    <path d="M 28 38 Q 22 38 22 30 Q 22 22 30 22 Q 32 14 42 16 Q 48 10 54 16 Q 64 14 66 22 Q 74 22 74 30 Q 74 38 68 38 Z" fill="url(#ofc-hat)" stroke="#A88974" stroke-width="1.1" stroke-linejoin="round"/>
    <ellipse cx="34" cy="26" rx="5" ry="3" fill="#FFFFFF" opacity="0.7"/>
    <ellipse cx="56" cy="22" rx="4" ry="2.5" fill="#FFFFFF" opacity="0.6"/>
    <rect x="26" y="36" width="44" height="6" rx="2" fill="url(#ofc-apron)" stroke="#A86840" stroke-width="0.8"/>
    <path d="M 28 42 L 30 60 Q 30 64 34 64 L 62 64 Q 66 64 66 60 L 68 42 Z" fill="url(#ofc-apron)" stroke="#A86840" stroke-width="1" stroke-linejoin="round"/>
    <rect x="28" y="50" width="40" height="4" fill="url(#ofc-band)"/>
    <circle cx="42" cy="58" r="1.2" fill="#A86840" opacity="0.5"/>
    <circle cx="48" cy="58" r="1.2" fill="#A86840" opacity="0.5"/>
    <circle cx="54" cy="58" r="1.2" fill="#A86840" opacity="0.5"/>
    <text x="48" y="49" text-anchor="middle" fill="#FFF8F2" font-size="4.5" font-weight="700" font-family="-apple-system,sans-serif" letter-spacing="0.5">FP</text>
  </g>
  <g fill="#F5C46E">
    <path d="M 22 70 L 23 73 L 26 74 L 23 75 L 22 78 L 21 75 L 18 74 L 21 73 Z" opacity="0.85">
      <animate attributeName="opacity" values="0.9;0.45;0.9" dur="3.6s" repeatCount="indefinite"/>
    </path>
    <path d="M 74 68 L 75 71 L 78 72 L 75 73 L 74 76 L 73 73 L 70 72 L 73 71 Z" opacity="0.8">
      <animate attributeName="opacity" values="0.85;0.4;0.85" dur="4.2s" begin="0.5s" repeatCount="indefinite"/>
    </path>
  </g>
</svg>
