<svg xmlns="http://www.w3.org/2000/svg" viewBox="0 0 96 96" width="96" height="96">
  <defs>
    <radialGradient id="og-bg" cx="0.5" cy="0.42" r="0.65">
      <stop offset="0%" stop-color="#FFF8F2"/><stop offset="60%" stop-color="#F2E8D8"/><stop offset="100%" stop-color="#C8A878" stop-opacity="0.45"/>
    </radialGradient>
    <linearGradient id="og-frame" x1="0" y1="0" x2="0" y2="1">
      <stop offset="0%" stop-color="#7A5838"/><stop offset="55%" stop-color="#5A3818"/><stop offset="100%" stop-color="#3A2008"/>
    </linearGradient>
    <radialGradient id="og-lens" cx="0.35" cy="0.3" r="0.8">
      <stop offset="0%" stop-color="#FFFFFF" stop-opacity="0.85"/><stop offset="60%" stop-color="#C8E0F0" stop-opacity="0.5"/><stop offset="100%" stop-color="#90B0C8" stop-opacity="0.4"/>
    </radialGradient>
  </defs>
  <ellipse cx="48" cy="90" rx="24" ry="2.4" fill="#A86840" opacity="0.16"/>
  <circle cx="48" cy="48" r="40" fill="url(#og-bg)"/>
  <g>
    <animateTransform attributeName="transform" type="translate" values="0 0; 0 -1.5; 0 0" dur="5s" repeatCount="indefinite" calcMode="spline" keyTimes="0;0.5;1" keySplines="0.42 0 0.58 1;0.42 0 0.58 1"/>
    <circle cx="32" cy="48" r="13" fill="url(#og-lens)" stroke="url(#og-frame)" stroke-width="3.2"/>
    <circle cx="64" cy="48" r="13" fill="url(#og-lens)" stroke="url(#og-frame)" stroke-width="3.2"/>
    <path d="M 45 48 Q 48 44 51 48" stroke="url(#og-frame)" stroke-width="3" fill="none" stroke-linecap="round"/>
    <path d="M 19 48 Q 16 47 14 49" stroke="url(#og-frame)" stroke-width="2.8" fill="none" stroke-linecap="round"/>
    <path d="M 77 48 Q 80 47 82 49" stroke="url(#og-frame)" stroke-width="2.8" fill="none" stroke-linecap="round"/>
    <ellipse cx="27" cy="43" rx="3.5" ry="2.2" fill="#FFFFFF" opacity="0.85"/>
    <ellipse cx="59" cy="43" rx="3.5" ry="2.2" fill="#FFFFFF" opacity="0.85"/>
  </g>
  <g fill="#F5C46E">
    <path d="M 22 22 L 23 25 L 26 26 L 23 27 L 22 30 L 21 27 L 18 26 L 21 25 Z" opacity="0.9">
      <animate attributeName="opacity" values="0.95;0.5;0.95" dur="3.8s" repeatCount="indefinite" calcMode="spline" keyTimes="0;0.5;1" keySplines="0.42 0 0.58 1;0.42 0 0.58 1"/>
    </path>
    <path d="M 74 26 L 75 28.5 L 77.5 29.5 L 75 30.5 L 74 33 L 73 30.5 L 70.5 29.5 L 73 28.5 Z" opacity="0.85">
      <animate attributeName="opacity" values="0.9;0.45;0.9" dur="4.4s" begin="0.7s" repeatCount="indefinite" calcMode="spline" keyTimes="0;0.5;1" keySplines="0.42 0 0.58 1;0.42 0 0.58 1"/>
    </path>
  </g>
</svg>
