<svg xmlns="http://www.w3.org/2000/svg" viewBox="0 0 96 96" width="96" height="96">
  <defs>
    <radialGradient id="osk-bg" cx="0.5" cy="0.42" r="0.7">
      <stop offset="0%" stop-color="#FFFCF8"/><stop offset="55%" stop-color="#FFE8F0"/><stop offset="100%" stop-color="#F5B0C8" stop-opacity="0.5"/>
    </radialGradient>
    <radialGradient id="osk-petal" cx="0.5" cy="0.4" r="0.7">
      <stop offset="0%" stop-color="#FFF0F5"/><stop offset="55%" stop-color="#FFC8D8"/><stop offset="100%" stop-color="#E08098"/>
    </radialGradient>
    <linearGradient id="osk-band" x1="0" y1="0" x2="0" y2="1">
      <stop offset="0%" stop-color="#F5A8C0"/><stop offset="100%" stop-color="#C05878"/>
    </linearGradient>
  </defs>
  <ellipse cx="48" cy="90" rx="24" ry="2.4" fill="#A04068" opacity="0.16"/>
  <circle cx="48" cy="48" r="40" fill="url(#osk-bg)"/>
  <g>
    <animateTransform attributeName="transform" type="translate" values="0 0; 0 -1; 0 0" dur="5.5s" repeatCount="indefinite" calcMode="spline" keyTimes="0;0.5;1" keySplines="0.42 0 0.58 1;0.42 0 0.58 1"/>
    <path d="M 18 50 Q 48 38 78 50 Q 78 56 74 56 Q 48 50 22 56 Q 18 56 18 50 Z" fill="url(#osk-band)" stroke="#902848" stroke-width="0.9" stroke-linejoin="round"/>
    <ellipse cx="48" cy="49" rx="14" ry="2" fill="#FFFFFF" opacity="0.4"/>
    <g transform="translate(48 38)">
      <path d="M 0 -10 Q 4 -8 4 -3 Q 0 -5 -4 -3 Q -4 -8 0 -10 Z" fill="url(#osk-petal)" stroke="#A85878" stroke-width="0.7"/>
      <path d="M 0 -10 Q 4 -8 4 -3 Q 0 -5 -4 -3 Q -4 -8 0 -10 Z" fill="url(#osk-petal)" stroke="#A85878" stroke-width="0.7" transform="rotate(72)"/>
      <path d="M 0 -10 Q 4 -8 4 -3 Q 0 -5 -4 -3 Q -4 -8 0 -10 Z" fill="url(#osk-petal)" stroke="#A85878" stroke-width="0.7" transform="rotate(144)"/>
      <path d="M 0 -10 Q 4 -8 4 -3 Q 0 -5 -4 -3 Q -4 -8 0 -10 Z" fill="url(#osk-petal)" stroke="#A85878" stroke-width="0.7" transform="rotate(216)"/>
      <path d="M 0 -10 Q 4 -8 4 -3 Q 0 -5 -4 -3 Q -4 -8 0 -10 Z" fill="url(#osk-petal)" stroke="#A85878" stroke-width="0.7" transform="rotate(288)"/>
      <circle r="2" fill="#F5C46E"/>
    </g>
  </g>
  <g fill="url(#osk-petal)" stroke="#C8788C" stroke-width="0.5">
    <path d="M 22 24 Q 25 22 27 24 Q 25 27 22 26 Q 21 25 22 24 Z" opacity="0.85">
      <animateTransform attributeName="transform" type="translate" values="0 0; -2 8; 0 16" dur="6s" repeatCount="indefinite"/>
      <animate attributeName="opacity" values="0.9;0.5;0" dur="6s" repeatCount="indefinite"/>
    </path>
    <path d="M 76 28 Q 79 26 81 28 Q 79 31 76 30 Q 75 29 76 28 Z" opacity="0.8">
      <animateTransform attributeName="transform" type="translate" values="0 0; 2 10; 0 20" dur="7s" begin="1s" repeatCount="indefinite"/>
      <animate attributeName="opacity" values="0.85;0.45;0" dur="7s" begin="1s" repeatCount="indefinite"/>
    </path>
    <path d="M 18 60 Q 21 58 23 60 Q 21 63 18 62 Q 17 61 18 60 Z" opacity="0.85">
      <animateTransform attributeName="transform" type="translate" values="0 0; 1 6; 0 12" dur="5.5s" begin="0.5s" repeatCount="indefinite"/>
      <animate attributeName="opacity" values="0.9;0.45;0" dur="5.5s" begin="0.5s" repeatCount="indefinite"/>
    </path>
  </g>
</svg>
