<svg xmlns="http://www.w3.org/2000/svg" viewBox="0 0 96 96" width="96" height="96">
  <defs>
    <radialGradient id="ofp-bg" cx="0.5" cy="0.42" r="0.7">
      <stop offset="0%" stop-color="#FFFCF0"/><stop offset="55%" stop-color="#FFE8B8"/><stop offset="100%" stop-color="#C09038" stop-opacity="0.55"/>
    </radialGradient>
    <linearGradient id="ofp-apron" x1="0" y1="0" x2="0" y2="1">
      <stop offset="0%" stop-color="#FFE8A0"/><stop offset="55%" stop-color="#F5C46E"/><stop offset="100%" stop-color="#A87018"/>
    </linearGradient>
    <linearGradient id="ofp-band" x1="0" y1="0" x2="0" y2="1">
      <stop offset="0%" stop-color="#F5C46E"/><stop offset="55%" stop-color="#A87018"/><stop offset="100%" stop-color="#603808"/>
    </linearGradient>
    <radialGradient id="ofp-hat" cx="0.5" cy="0.4" r="0.7">
      <stop offset="0%" stop-color="#FFFFFF"/><stop offset="65%" stop-color="#FFF5E0"/><stop offset="100%" stop-color="#E0C880"/>
    </radialGradient>
  </defs>
  <ellipse cx="48" cy="90" rx="26" ry="2.6" fill="#603808" opacity="0.22"/>
  <circle cx="48" cy="48" r="40" fill="url(#ofp-bg)"/>
  <g>
    <animateTransform attributeName="transform" type="translate" values="0 0; 0 -1.5; 0 0" dur="5.5s" repeatCount="indefinite" calcMode="spline" keyTimes="0;0.5;1" keySplines="0.42 0 0.58 1;0.42 0 0.58 1"/>
    <path d="M 32 24 Q 28 24 28 18 Q 28 12 34 12 Q 36 8 42 10 Q 48 6 54 10 Q 60 8 62 12 Q 68 12 68 18 Q 68 24 64 24 Z" fill="url(#ofp-hat)" stroke="#A88858" stroke-width="1" stroke-linejoin="round"/>
    <ellipse cx="38" cy="16" rx="3.5" ry="2" fill="#FFFFFF" opacity="0.7"/>
    <rect x="28" y="22" width="40" height="5" rx="1.5" fill="url(#ofp-apron)" stroke="#7A4810" stroke-width="0.8"/>
    <path d="M 30 27 L 32 56 Q 32 62 38 62 L 58 62 Q 64 62 64 56 L 66 27 Z" fill="url(#ofp-apron)" stroke="#7A4810" stroke-width="1.1" stroke-linejoin="round"/>
    <rect x="30" y="42" width="36" height="5" fill="url(#ofp-band)"/>
    <path d="M 34 50 L 38 58 M 38 50 L 34 58" stroke="#FFF5E0" stroke-width="0.7" opacity="0.7"/>
    <path d="M 58 50 L 62 58 M 62 50 L 58 58" stroke="#FFF5E0" stroke-width="0.7" opacity="0.7"/>
    <circle cx="48" cy="44.5" r="6" fill="#FFF5E0" stroke="#7A4810" stroke-width="0.9" opacity="0.95"/>
    <text x="48" y="46.5" text-anchor="middle" fill="#7A4810" font-size="6" font-weight="800" font-family="-apple-system,sans-serif">FP</text>
    <ellipse cx="40" cy="34" rx="5" ry="2" fill="#FFFFFF" opacity="0.55"/>
  </g>
  <g fill="#FFE8A0">
    <path d="M 22 36 L 23 40 L 27 41 L 23 42 L 22 46 L 21 42 L 17 41 L 21 40 Z" opacity="0.95">
      <animate attributeName="opacity" values="1;0.45;1" dur="3.2s" repeatCount="indefinite"/>
    </path>
    <path d="M 74 30 L 75 33.5 L 78.5 34.5 L 75 35.5 L 74 39 L 73 35.5 L 69.5 34.5 L 73 33.5 Z" opacity="0.9">
      <animate attributeName="opacity" values="0.95;0.4;0.95" dur="3.8s" begin="0.5s" repeatCount="indefinite"/>
    </path>
    <path d="M 18 70 L 18.7 72 L 20.5 72.7 L 18.7 73.4 L 18 75.4 L 17.3 73.4 L 15.5 72.7 L 17.3 72 Z" opacity="0.85">
      <animate attributeName="opacity" values="0.9;0.4;0.9" dur="4.2s" begin="0.8s" repeatCount="indefinite"/>
    </path>
    <path d="M 78 68 L 78.7 70 L 80.5 70.7 L 78.7 71.4 L 78 73.4 L 77.3 71.4 L 75.5 70.7 L 77.3 70 Z" opacity="0.85">
      <animate attributeName="opacity" values="0.9;0.35;0.9" dur="3.6s" begin="0.3s" repeatCount="indefinite"/>
    </path>
    <circle cx="48" cy="76" r="1.3" opacity="0.8">
      <animate attributeName="opacity" values="0.9;0.3;0.9" dur="3s" begin="0.6s" repeatCount="indefinite"/>
    </circle>
  </g>
</svg>
