<svg xmlns="http://www.w3.org/2000/svg" viewBox="0 0 96 96" width="96" height="96">
  <defs>
    <radialGradient id="ows-bg" cx="0.5" cy="0.42" r="0.7">
      <stop offset="0%" stop-color="#F8FCFF"/><stop offset="60%" stop-color="#E0EAF5"/><stop offset="100%" stop-color="#A8B8D0" stop-opacity="0.45"/>
    </radialGradient>
    <linearGradient id="ows-scarf" x1="0" y1="0" x2="0" y2="1">
      <stop offset="0%" stop-color="#FFF5E0"/><stop offset="55%" stop-color="#E8D8B8"/><stop offset="100%" stop-color="#A88858"/>
    </linearGradient>
    <linearGradient id="ows-scarf2" x1="0" y1="0" x2="0" y2="1">
      <stop offset="0%" stop-color="#F5E5C8"/><stop offset="100%" stop-color="#A88858"/>
    </linearGradient>
  </defs>
  <ellipse cx="48" cy="90" rx="26" ry="2.6" fill="#586878" opacity="0.16"/>
  <circle cx="48" cy="48" r="40" fill="url(#ows-bg)"/>
  <g>
    <animateTransform attributeName="transform" type="rotate" values="-1.5 48 50; 1.5 48 50; -1.5 48 50" dur="6.5s" repeatCount="indefinite" calcMode="spline" keyTimes="0;0.5;1" keySplines="0.42 0 0.58 1;0.42 0 0.58 1"/>
    <path d="M 14 40 Q 48 28 82 40 Q 80 56 74 60 Q 60 54 48 54 Q 36 54 22 60 Q 16 56 14 40 Z" fill="url(#ows-scarf)" stroke="#7A5838" stroke-width="1.1" stroke-linejoin="round"/>
    <path d="M 18 42 Q 22 46 24 48 M 26 38 Q 28 44 28 50 M 34 36 Q 34 44 34 52 M 42 35 Q 42 44 42 54 M 54 35 Q 54 44 54 54 M 62 36 Q 62 44 62 52 M 68 38 Q 68 44 68 50 M 74 42 Q 72 46 70 48" stroke="#A88858" stroke-width="0.9" fill="none" opacity="0.75"/>
    <path d="M 36 54 Q 34 70 30 80 L 26 76 L 28 84 L 24 82 L 32 88 Q 38 72 40 56 Z" fill="url(#ows-scarf2)" stroke="#7A5838" stroke-width="1" stroke-linejoin="round"/>
    <path d="M 60 54 Q 62 70 66 80 L 70 76 L 68 84 L 72 82 L 64 88 Q 58 72 56 56 Z" fill="url(#ows-scarf2)" stroke="#7A5838" stroke-width="1" stroke-linejoin="round"/>
    <path d="M 32 78 L 30 84 M 34 80 L 33 86" stroke="#A88858" stroke-width="0.7" opacity="0.7"/>
    <path d="M 64 78 L 66 84 M 62 80 L 63 86" stroke="#A88858" stroke-width="0.7" opacity="0.7"/>
    <ellipse cx="48" cy="42" rx="14" ry="3.5" fill="#FFFFFF" opacity="0.35"/>
  </g>
  <g fill="#FFFFFF" stroke="#A8B8D0" stroke-width="0.6">
    <g opacity="0.9">
      <animateTransform attributeName="transform" type="translate" values="0 0; 0 6; 0 12" dur="6s" repeatCount="indefinite"/>
      <animate attributeName="opacity" values="1;0.6;0" dur="6s" repeatCount="indefinite"/>
      <path d="M 22 22 L 22 28 M 19 25 L 25 25 M 20 23 L 24 27 M 24 23 L 20 27" stroke-width="1"/>
    </g>
    <g opacity="0.85">
      <animateTransform attributeName="transform" type="translate" values="0 0; 0 8; 0 16" dur="7s" begin="1s" repeatCount="indefinite"/>
      <animate attributeName="opacity" values="0.9;0.5;0" dur="7s" begin="1s" repeatCount="indefinite"/>
      <path d="M 76 18 L 76 24 M 73 21 L 79 21 M 74 19 L 78 23 M 78 19 L 74 23" stroke-width="0.9"/>
    </g>
    <circle cx="20" cy="62" r="1.2" stroke="none" opacity="0.85">
      <animate attributeName="opacity" values="0.9;0.3;0.9" dur="3.4s" begin="0.5s" repeatCount="indefinite"/>
    </circle>
  </g>
</svg>
