<svg xmlns="http://www.w3.org/2000/svg" viewBox="0 0 96 96" width="96" height="96">
  <defs>
    <radialGradient id="oc-bg" cx="0.5" cy="0.42" r="0.7">
      <stop offset="0%" stop-color="#FFFCEC"/><stop offset="55%" stop-color="#FFF0C8"/><stop offset="100%" stop-color="#F5C46E" stop-opacity="0.55"/>
    </radialGradient>
    <linearGradient id="oc-gold" x1="0" y1="0" x2="0" y2="1">
      <stop offset="0%" stop-color="#FFF0B8"/><stop offset="45%" stop-color="#F5C46E"/><stop offset="100%" stop-color="#A87830"/>
    </linearGradient>
    <linearGradient id="oc-band" x1="0" y1="0" x2="0" y2="1">
      <stop offset="0%" stop-color="#F5C46E"/><stop offset="100%" stop-color="#8A5818"/>
    </linearGradient>
  </defs>
  <ellipse cx="48" cy="90" rx="26" ry="2.5" fill="#7A4825" opacity="0.2"/>
  <circle cx="48" cy="48" r="40" fill="url(#oc-bg)"/>
  <g stroke="#F5C46E" stroke-width="1" stroke-linecap="round" opacity="0.65">
    <animateTransform attributeName="transform" type="rotate" values="0 48 48; 8 48 48; 0 48 48" dur="9s" repeatCount="indefinite" calcMode="spline" keyTimes="0;0.5;1" keySplines="0.42 0 0.58 1;0.42 0 0.58 1"/>
    <line x1="48" y1="10" x2="48" y2="16"/>
    <line x1="20" y1="20" x2="24" y2="24"/>
    <line x1="76" y1="20" x2="72" y2="24"/>
    <line x1="14" y1="48" x2="20" y2="48"/>
    <line x1="82" y1="48" x2="76" y2="48"/>
  </g>
  <g>
    <animateTransform attributeName="transform" type="translate" values="0 0; 0 -1.5; 0 0" dur="5.5s" repeatCount="indefinite" calcMode="spline" keyTimes="0;0.5;1" keySplines="0.42 0 0.58 1;0.42 0 0.58 1"/>
    <path d="M 22 64 L 26 36 L 36 50 L 48 28 L 60 50 L 70 36 L 74 64 Z" fill="url(#oc-gold)" stroke="#7A4818" stroke-width="1.2" stroke-linejoin="round"/>
    <rect x="22" y="62" width="52" height="8" rx="2" fill="url(#oc-band)" stroke="#5A3808" stroke-width="1"/>
    <circle cx="26" cy="36" r="2.4" fill="#F5B5C5" stroke="#8A3A4A" stroke-width="0.6"/>
    <circle cx="48" cy="28" r="3" fill="#F5A8B0" stroke="#8A3A4A" stroke-width="0.6"/>
    <circle cx="70" cy="36" r="2.4" fill="#F5B5C5" stroke="#8A3A4A" stroke-width="0.6"/>
    <circle cx="30" cy="66" r="1.6" fill="#C8E8F5" stroke="#7AB0C0" stroke-width="0.4"/>
    <circle cx="48" cy="66" r="1.8" fill="#FFFFFF" stroke="#A88974" stroke-width="0.4"/>
    <circle cx="66" cy="66" r="1.6" fill="#C8E8F5" stroke="#7AB0C0" stroke-width="0.4"/>
    <path d="M 26 38 L 36 52" stroke="#FFE8B0" stroke-width="0.8" opacity="0.7"/>
    <path d="M 48 30 L 60 52" stroke="#FFE8B0" stroke-width="0.8" opacity="0.7"/>
    <ellipse cx="48" cy="64" rx="14" ry="1.2" fill="#FFFFFF" opacity="0.4"/>
  </g>
  <g fill="#FFF8F2">
    <circle cx="22" cy="32" r="1.4">
      <animate attributeName="opacity" values="0.95;0.4;0.95" dur="3s" repeatCount="indefinite"/>
    </circle>
    <circle cx="76" cy="56" r="1.6">
      <animate attributeName="opacity" values="0.95;0.4;0.95" dur="3.8s" begin="0.6s" repeatCount="indefinite"/>
    </circle>
  </g>
</svg>
