<svg xmlns="http://www.w3.org/2000/svg" viewBox="0 0 96 96" width="96" height="96">
  <defs>
    <radialGradient id="osc-bg" cx="0.5" cy="0.42" r="0.75">
      <stop offset="0%" stop-color="#E8E0FF"/><stop offset="60%" stop-color="#9888C8" stop-opacity="0.55"/><stop offset="100%" stop-color="#283058" stop-opacity="0.7"/>
    </radialGradient>
    <linearGradient id="osc-cape" x1="0" y1="0" x2="0" y2="1">
      <stop offset="0%" stop-color="#384878"/><stop offset="55%" stop-color="#1A2048"/><stop offset="100%" stop-color="#080A28"/>
    </linearGradient>
    <radialGradient id="osc-star" cx="0.5" cy="0.5" r="0.5">
      <stop offset="0%" stop-color="#FFFFFF"/><stop offset="60%" stop-color="#FFE8A0"/><stop offset="100%" stop-color="#F5C46E"/>
    </radialGradient>
  </defs>
  <ellipse cx="48" cy="90" rx="26" ry="2.6" fill="#1A2048" opacity="0.25"/>
  <circle cx="48" cy="48" r="40" fill="url(#osc-bg)"/>
  <g>
    <animateTransform attributeName="transform" type="translate" values="0 0; 0 -1.5; 0 0" dur="6s" repeatCount="indefinite" calcMode="spline" keyTimes="0;0.5;1" keySplines="0.42 0 0.58 1;0.42 0 0.58 1"/>
    <path d="M 30 28 Q 48 22 66 28 Q 70 32 68 38 L 70 44 Q 76 60 72 76 Q 60 82 48 80 Q 36 82 24 76 Q 20 60 26 44 L 28 38 Q 26 32 30 28 Z" fill="url(#osc-cape)" stroke="#080A28" stroke-width="1.1" stroke-linejoin="round"/>
    <path d="M 30 28 Q 48 24 66 28 L 64 32 Q 48 28 32 32 Z" fill="#5868A0" opacity="0.6"/>
    <ellipse cx="48" cy="32" rx="3.5" ry="2" fill="url(#osc-star)" opacity="0.95"/>
    <path d="M 36 48 L 37 51 L 40 52 L 37 53 L 36 56 L 35 53 L 32 52 L 35 51 Z" fill="url(#osc-star)" opacity="0.95">
      <animate attributeName="opacity" values="1;0.4;1" dur="3.2s" repeatCount="indefinite"/>
    </path>
    <path d="M 60 52 L 61 55 L 64 56 L 61 57 L 60 60 L 59 57 L 56 56 L 59 55 Z" fill="url(#osc-star)" opacity="0.9">
      <animate attributeName="opacity" values="0.95;0.35;0.95" dur="3.8s" begin="0.5s" repeatCount="indefinite"/>
    </path>
    <circle cx="44" cy="64" r="1.2" fill="#FFE8A0" opacity="0.85">
      <animate attributeName="opacity" values="0.9;0.3;0.9" dur="2.8s" begin="0.3s" repeatCount="indefinite"/>
    </circle>
    <circle cx="56" cy="68" r="1.4" fill="#FFFFFF" opacity="0.85">
      <animate attributeName="opacity" values="0.9;0.3;0.9" dur="3.4s" begin="0.7s" repeatCount="indefinite"/>
    </circle>
    <circle cx="38" cy="72" r="0.9" fill="#FFE8A0" opacity="0.8"/>
    <circle cx="62" cy="42" r="1" fill="#FFFFFF" opacity="0.85"/>
  </g>
  <g fill="#FFE8A0">
    <path d="M 18 26 L 18.7 28 L 20.5 28.7 L 18.7 29.4 L 18 31.4 L 17.3 29.4 L 15.5 28.7 L 17.3 28 Z" opacity="0.85">
      <animate attributeName="opacity" values="0.95;0.3;0.95" dur="3.6s" repeatCount="indefinite"/>
    </path>
    <circle cx="80" cy="22" r="1.3" opacity="0.85">
      <animate attributeName="opacity" values="0.9;0.3;0.9" dur="4s" begin="0.5s" repeatCount="indefinite"/>
    </circle>
  </g>
</svg>
