<svg xmlns="http://www.w3.org/2000/svg" viewBox="0 0 96 96" width="96" height="96">
  <defs>
    <radialGradient id="osg-bg" cx="0.5" cy="0.42" r="0.7">
      <stop offset="0%" stop-color="#FFF8E8"/><stop offset="55%" stop-color="#F5D888"/><stop offset="100%" stop-color="#C09848" stop-opacity="0.5"/>
    </radialGradient>
    <linearGradient id="osg-frame" x1="0" y1="0" x2="0" y2="1">
      <stop offset="0%" stop-color="#F5C46E"/><stop offset="55%" stop-color="#C09038"/><stop offset="100%" stop-color="#806018"/>
    </linearGradient>
    <linearGradient id="osg-lens" x1="0" y1="0" x2="0" y2="1">
      <stop offset="0%" stop-color="#383028"/><stop offset="55%" stop-color="#181008"/><stop offset="100%" stop-color="#080400"/>
    </linearGradient>
  </defs>
  <ellipse cx="48" cy="90" rx="24" ry="2.4" fill="#806018" opacity="0.18"/>
  <circle cx="48" cy="48" r="40" fill="url(#osg-bg)"/>
  <g>
    <animateTransform attributeName="transform" type="translate" values="0 0; 0 -1.2; 0 0" dur="5s" repeatCount="indefinite" calcMode="spline" keyTimes="0;0.5;1" keySplines="0.42 0 0.58 1;0.42 0 0.58 1"/>
    <circle cx="30" cy="48" r="15" fill="url(#osg-lens)" stroke="url(#osg-frame)" stroke-width="3.4"/>
    <circle cx="66" cy="48" r="15" fill="url(#osg-lens)" stroke="url(#osg-frame)" stroke-width="3.4"/>
    <path d="M 45 48 Q 48 44 51 48" stroke="url(#osg-frame)" stroke-width="3.2" fill="none" stroke-linecap="round"/>
    <path d="M 15 48 Q 12 47 10 49" stroke="url(#osg-frame)" stroke-width="2.8" fill="none" stroke-linecap="round"/>
    <path d="M 81 48 Q 84 47 86 49" stroke="url(#osg-frame)" stroke-width="2.8" fill="none" stroke-linecap="round"/>
    <path d="M 22 42 Q 28 38 36 41" stroke="#FFFFFF" stroke-width="2" fill="none" opacity="0.55" stroke-linecap="round"/>
    <path d="M 58 42 Q 64 38 72 41" stroke="#FFFFFF" stroke-width="2" fill="none" opacity="0.55" stroke-linecap="round"/>
    <ellipse cx="36" cy="44" rx="2.5" ry="1.4" fill="#FFFFFF" opacity="0.85"/>
    <ellipse cx="72" cy="44" rx="2.5" ry="1.4" fill="#FFFFFF" opacity="0.85"/>
    <path d="M 32 50 L 33 52 L 35 52.5 L 33 53 L 32 55 L 31 53 L 29 52.5 L 31 52 Z" fill="#F5C46E" opacity="0.95">
      <animate attributeName="opacity" values="1;0.4;1" dur="2.8s" repeatCount="indefinite"/>
    </path>
    <path d="M 68 52 L 69 54 L 71 54.5 L 69 55 L 68 57 L 67 55 L 65 54.5 L 67 54 Z" fill="#F5C46E" opacity="0.9">
      <animate attributeName="opacity" values="0.95;0.35;0.95" dur="3.4s" begin="0.5s" repeatCount="indefinite"/>
    </path>
  </g>
  <g fill="#F5C46E">
    <path d="M 22 22 L 23 25 L 26 26 L 23 27 L 22 30 L 21 27 L 18 26 L 21 25 Z" opacity="0.9">
      <animate attributeName="opacity" values="0.95;0.4;0.95" dur="3.6s" repeatCount="indefinite"/>
    </path>
    <path d="M 74 24 L 75 26.5 L 77.5 27.5 L 75 28.5 L 74 31 L 73 28.5 L 70.5 27.5 L 73 26.5 Z" opacity="0.85">
      <animate attributeName="opacity" values="0.9;0.35;0.9" dur="4.2s" begin="0.5s" repeatCount="indefinite"/>
    </path>
  </g>
</svg>
