<svg xmlns="http://www.w3.org/2000/svg" viewBox="0 0 96 96" width="96" height="96">
  <defs>
    <radialGradient id="or-bg" cx="0.5" cy="0.42" r="0.65">
      <stop offset="0%" stop-color="#FFF8F2"/><stop offset="60%" stop-color="#FFE0E8"/><stop offset="100%" stop-color="#F5A8C0" stop-opacity="0.5"/>
    </radialGradient>
    <linearGradient id="or-ribbon" x1="0" y1="0" x2="0" y2="1">
      <stop offset="0%" stop-color="#FFC8D8"/><stop offset="55%" stop-color="#F088A0"/><stop offset="100%" stop-color="#C04868"/>
    </linearGradient>
    <radialGradient id="or-knot" cx="0.5" cy="0.4" r="0.7">
      <stop offset="0%" stop-color="#FFD8E0"/><stop offset="100%" stop-color="#D06080"/>
    </radialGradient>
  </defs>
  <ellipse cx="48" cy="90" rx="22" ry="2.2" fill="#A04068" opacity="0.16"/>
  <circle cx="48" cy="48" r="40" fill="url(#or-bg)"/>
  <g>
    <animateTransform attributeName="transform" type="rotate" values="-3 48 50; 3 48 50; -3 48 50" dur="5.5s" repeatCount="indefinite" calcMode="spline" keyTimes="0;0.5;1" keySplines="0.42 0 0.58 1;0.42 0 0.58 1"/>
    <path d="M 48 50 Q 32 38 22 42 Q 16 50 22 60 Q 34 64 48 54 Z" fill="url(#or-ribbon)" stroke="#9A3858" stroke-width="1.1" stroke-linejoin="round"/>
    <path d="M 48 50 Q 64 38 74 42 Q 80 50 74 60 Q 62 64 48 54 Z" fill="url(#or-ribbon)" stroke="#9A3858" stroke-width="1.1" stroke-linejoin="round"/>
    <path d="M 26 46 Q 30 50 34 50" stroke="#FFF0F4" stroke-width="0.8" fill="none" opacity="0.7"/>
    <path d="M 62 50 Q 66 50 70 46" stroke="#FFF0F4" stroke-width="0.8" fill="none" opacity="0.7"/>
    <ellipse cx="48" cy="51" rx="7" ry="9" fill="url(#or-knot)" stroke="#9A3858" stroke-width="1.1"/>
    <ellipse cx="46" cy="48" rx="2.5" ry="3.5" fill="#FFFFFF" opacity="0.7"/>
    <path d="M 44 60 Q 42 70 40 78" stroke="#C04868" stroke-width="3" fill="none" stroke-linecap="round" opacity="0.9"/>
    <path d="M 52 60 Q 54 70 56 78" stroke="#C04868" stroke-width="3" fill="none" stroke-linecap="round" opacity="0.9"/>
  </g>
  <g fill="#F5A8C0">
    <path d="M 22 22 L 23 25 L 26 26 L 23 27 L 22 30 L 21 27 L 18 26 L 21 25 Z" opacity="0.85">
      <animate attributeName="opacity" values="0.9;0.4;0.9" dur="3.8s" repeatCount="indefinite"/>
    </path>
    <path d="M 74 24 L 75 26.5 L 77.5 27.5 L 75 28.5 L 74 31 L 73 28.5 L 70.5 27.5 L 73 26.5 Z" opacity="0.8">
      <animate attributeName="opacity" values="0.85;0.35;0.85" dur="4.2s" begin="0.5s" repeatCount="indefinite"/>
    </path>
  </g>
</svg>
