<svg xmlns="http://www.w3.org/2000/svg" viewBox="0 0 96 96" width="96" height="96">
  <defs>
    <radialGradient id="ow-bg" cx="0.5" cy="0.42" r="0.7">
      <stop offset="0%" stop-color="#F8F2FF"/><stop offset="60%" stop-color="#E8D8F0"/><stop offset="100%" stop-color="#A878C8" stop-opacity="0.45"/>
    </radialGradient>
    <linearGradient id="ow-hat" x1="0" y1="0" x2="0" y2="1">
      <stop offset="0%" stop-color="#6848A0"/><stop offset="55%" stop-color="#3A2068"/><stop offset="100%" stop-color="#1A0838"/>
    </linearGradient>
    <linearGradient id="ow-band" x1="0" y1="0" x2="0" y2="1">
      <stop offset="0%" stop-color="#F5C46E"/><stop offset="100%" stop-color="#C09850"/>
    </linearGradient>
  </defs>
  <ellipse cx="48" cy="90" rx="22" ry="2.2" fill="#3A2068" opacity="0.2"/>
  <circle cx="48" cy="48" r="40" fill="url(#ow-bg)"/>
  <g>
    <animateTransform attributeName="transform" type="rotate" values="-2 48 70; 2 48 70; -2 48 70" dur="6s" repeatCount="indefinite" calcMode="spline" keyTimes="0;0.5;1" keySplines="0.42 0 0.58 1;0.42 0 0.58 1"/>
    <path d="M 48 14 Q 52 30 58 50 Q 60 60 62 64 L 34 64 Q 36 60 38 50 Q 44 30 48 14 Z" fill="url(#ow-hat)" stroke="#180828" stroke-width="1.1" stroke-linejoin="round"/>
    <ellipse cx="48" cy="66" rx="22" ry="5" fill="url(#ow-hat)" stroke="#180828" stroke-width="1.1"/>
    <ellipse cx="48" cy="66" rx="22" ry="5" fill="none" stroke="url(#ow-band)" stroke-width="1.5" opacity="0.9"/>
    <path d="M 44 60 Q 48 56 52 60" stroke="url(#ow-band)" stroke-width="1.4" fill="none" opacity="0.85"/>
    <path d="M 56 36 L 57 40 L 61 41 L 57 42 L 56 46 L 55 42 L 51 41 L 55 40 Z" fill="#F5C46E" opacity="0.95">
      <animate attributeName="opacity" values="0.95;0.5;0.95" dur="3s" repeatCount="indefinite"/>
    </path>
    <path d="M 38 28 Q 36 26 38 24 Q 41 26 39 30 Q 37 28 38 28 Z" fill="#FFF5C8" opacity="0.85"/>
    <ellipse cx="42" cy="38" rx="4" ry="2" fill="#7A5898" opacity="0.55"/>
  </g>
  <g fill="#C8A8E0">
    <circle cx="22" cy="32" r="1.4" opacity="0.85">
      <animate attributeName="opacity" values="0.95;0.3;0.95" dur="3.2s" repeatCount="indefinite"/>
    </circle>
    <circle cx="76" cy="36" r="1.2" opacity="0.8">
      <animate attributeName="opacity" values="0.9;0.3;0.9" dur="3.8s" begin="0.5s" repeatCount="indefinite"/>
    </circle>
    <circle cx="20" cy="60" r="1" opacity="0.75">
      <animate attributeName="opacity" values="0.85;0.25;0.85" dur="4s" begin="0.8s" repeatCount="indefinite"/>
    </circle>
    <path d="M 78 60 L 79 62 L 81 62.5 L 79 63 L 78 65 L 77 63 L 75 62.5 L 77 62 Z" opacity="0.85">
      <animate attributeName="opacity" values="0.9;0.35;0.9" dur="3.6s" begin="0.3s" repeatCount="indefinite"/>
    </path>
  </g>
</svg>
